<?xml version="1.0" standalone="no"?>
<!DOCTYPE svg PUBLIC "-//W3C//DTD SVG 20010904//EN"
 "http://www.w3.org/TR/2001/REC-SVG-20010904/DTD/svg10.dtd">
<svg version="1.0" xmlns="http://www.w3.org/2000/svg"
 width="1024.000000pt" height="1024.000000pt" viewBox="0 0 1024.000000 1024.000000"
 preserveAspectRatio="xMidYMid meet">
<metadata>
Created by potrace 1.14, written by Peter Selinger 2001-2017
</metadata>
<g transform="translate(0.000000,1024.000000) scale(0.100000,-0.100000)"
fill="#000000" stroke="none">
<path d="M4855 9960 c-140 -5 -290 -18 -451 -38 l-241 -32 -230 -142 c-127
-79 -309 -183 -406 -233 l-176 -90 -215 -415 -214 -415 5 -610 5 -610 95 -430
c52 -236 97 -457 100 -490 2 -33 -5 -163 -17 -290 -20 -207 -21 -264 -15 -565
6 -297 10 -350 32 -465 59 -309 149 -718 209 -950 36 -137 70 -266 75 -286 5
-22 70 -116 159 -235 l151 -199 -6 -205 c-3 -113 -8 -246 -11 -297 l-6 -92
-138 -131 c-123 -116 -148 -135 -217 -164 -43 -18 -357 -147 -698 -286 -341
-139 -622 -255 -624 -256 -4 -4 270 -1130 279 -1143 5 -8 402 -189 914 -418
154 -68 303 -128 330 -133 28 -5 294 -18 591 -29 297 -11 671 -25 830 -31
l290 -11 1088 163 1088 163 477 458 c262 252 478 467 480 476 4 22 -145 880
-156 900 -5 8 -255 81 -624 181 l-617 167 -159 118 -159 117 -6 66 c-3 37 -11
148 -18 248 l-12 181 180 344 181 344 46 335 c54 398 106 969 106 1165 0 176
-12 318 -46 565 l-27 195 82 400 81 400 0 265 c0 248 -3 293 -49 710 l-48 445
-84 204 -84 204 -166 181 -166 181 -348 180 -348 180 -301 82 -301 82 -140 -1
c-77 -1 -234 -5 -350 -8z"/>
</g>
</svg>
